<?xml version="1.0" encoding="utf-8"?>
<!-- Generator: Adobe Illustrator 24.0.0, SVG Export Plug-In . SVG Version: 6.00 Build 0)  -->
<svg version="1.1" id="Layer_1" xmlns="http://www.w3.org/2000/svg" xmlns:xlink="http://www.w3.org/1999/xlink" x="0px" y="0px"
	 viewBox="0 0 81 21.4" style="enable-background:new 0 0 81 21.4;" xml:space="preserve">
<style type="text/css">
	.st0{fill-rule:evenodd;clip-rule:evenodd;fill:#EA6267;}
	.st1{fill:#FFFFFF;}
	.st2{fill-rule:evenodd;clip-rule:evenodd;fill:#FEFEFE;}
</style>
<g id="Layer_x0020_1">
	<g id="_1643882958848">
		<path class="st0" d="M0.5,0h20.3c0.4,0,0.5,0.4,0.5,0.5v20.3c0,0.2-0.2,0.5-0.5,0.5H0.5c-0.2,0-0.5-0.2-0.5-0.5V0.6
			C0,0.4,0.4,0,0.5,0z"/>
		<path class="st1" d="M10.8,14.7c-1.1,0-1.8-0.2-2.4-0.9c-0.2-0.4-0.4-0.9-0.4-1.1c4.9,0,7.8-1.1,7.8-4.2c0-0.5,0-0.9-0.2-1.3
			c-0.7,0.2-2,0.7-3.3,0.9c0.2,0,0.2,0.2,0.2,0.4c0,1.1-1.4,1.4-4.2,1.4c0.2-0.7,0.7-1.4,1.4-2C8.9,7.8,8,7.4,7.2,7.1
			C6.9,7.4,6.9,8,6.9,8.2c0.2,0,0.2,0.2,0.2,0.4L6.9,10c0,0.2-0.2,0.4-0.4,0.4l0,0c-0.2,0-0.4-0.2-0.4-0.4l0.2-1.6l0.2-0.2
			c0.2-0.4,0.2-0.7,0.4-1.1c-1.3,1.4-2,3.4-2,5.4c0,3.1,1.6,5.1,5.1,5.1c2.2,0,3.8-0.5,5.4-1.4l-0.9-2.2
			C13.4,14.5,12.3,14.7,10.8,14.7z"/>
		<path class="st2" d="M16.1,6.5c0,0-2.5,1.1-4.3,1.3c-1.1,0-2.7-0.4-4-0.9c-0.2,0-0.5-0.2-0.7-0.4C6.3,6.3,6,6.2,6,5.8
			c0-0.5,4.2-2,5.8-2C13.2,4,17.9,6,16.1,6.5z"/>
	</g>
	<path class="st1" d="M29.1,5.8v4H34v2h-4.9V17h-2.5V4h8.3v1.8H29.1z M41.8,11.4c0-0.4,0-0.5,0-0.9c-0.2-0.2-0.4-0.5-0.5-0.7
		c0-0.2-0.4-0.4-0.5-0.4c-0.2-0.2-0.5-0.2-0.9-0.2c-0.5,0-1.1,0.2-1.4,0.5c-0.4,0.4-0.7,0.9-0.7,1.6H41.8z M37.4,12.7
		c0.2,0.5,0.2,0.9,0.4,1.3s0.4,0.7,0.5,0.9s0.4,0.4,0.7,0.5c0.4,0,0.7,0.2,1.1,0.2s0.5-0.2,0.9-0.2c0.2-0.2,0.5-0.2,0.7-0.4
		c0.2,0,0.4-0.2,0.5-0.2c0-0.2,0.2-0.2,0.4-0.2s0.4,0,0.4,0.2l0.7,0.9c-0.4,0.2-0.5,0.5-0.9,0.7c-0.4,0.2-0.5,0.4-0.9,0.4
		c-0.4,0.2-0.7,0.2-1.1,0.4c-0.4,0-0.7,0-0.9,0c-0.7,0-1.3,0-2-0.4c-0.5-0.2-0.9-0.5-1.4-0.9c-0.4-0.4-0.7-0.9-0.9-1.6
		c-0.2-0.5-0.4-1.3-0.4-2.2c0-0.5,0.2-1.1,0.4-1.6c0.2-0.7,0.5-1.1,0.9-1.6C36.9,8.5,37.3,8.2,38,8c0.5-0.2,1.1-0.4,1.8-0.4
		c0.5,0,1.1,0.2,1.6,0.4c0.5,0.2,0.9,0.4,1.3,0.7c0.4,0.4,0.7,0.9,0.9,1.3c0.2,0.5,0.2,1.3,0.2,1.8c0,0.4,0,0.7,0,0.7
		c-0.2,0.2-0.2,0.2-0.5,0.2H37.4z M51.5,11.4c0-0.4,0-0.5-0.2-0.9c0-0.2-0.2-0.5-0.4-0.7c-0.2-0.2-0.4-0.4-0.5-0.4
		c-0.4-0.2-0.5-0.2-0.9-0.2c-0.7,0-1.1,0.2-1.4,0.5c-0.5,0.4-0.7,0.9-0.7,1.6H51.5z M47.2,12.7c0.2,0.5,0.2,0.9,0.4,1.3
		c0,0.4,0.2,0.7,0.5,0.9c0.2,0.2,0.4,0.4,0.7,0.5c0.4,0,0.5,0.2,0.9,0.2s0.7-0.2,1.1-0.2c0.2-0.2,0.4-0.2,0.5-0.4
		c0.4,0,0.5-0.2,0.5-0.2c0.2-0.2,0.4-0.2,0.5-0.2s0.4,0,0.4,0.2l0.7,0.9c-0.4,0.2-0.5,0.5-0.9,0.7c-0.4,0.2-0.7,0.4-0.9,0.4
		C51.4,17,51,17,50.6,17.2c-0.4,0-0.7,0-1.1,0c-0.5,0-1.3,0-1.8-0.4c-0.5-0.2-0.9-0.5-1.4-0.9c-0.4-0.4-0.7-0.9-0.9-1.6
		C45.2,13.8,45,13,45,12.1c0-0.5,0-1.1,0.4-1.6c0.2-0.7,0.4-1.1,0.9-1.6C46.7,8.5,47,8.2,47.6,8c0.5-0.2,1.3-0.4,2-0.4
		c0.5,0,1.1,0.2,1.6,0.4c0.4,0.2,0.9,0.4,1.3,0.7S53,9.6,53.2,10c0.4,0.5,0.4,1.3,0.4,1.8c0,0.4,0,0.7,0,0.7
		c-0.2,0.2-0.4,0.2-0.5,0.2H47.2z M61.1,10.1c-0.2-0.4-0.5-0.5-0.9-0.7c-0.2,0-0.5-0.2-0.9-0.2c-0.4,0-0.7,0.2-0.9,0.2
		c-0.4,0.2-0.5,0.4-0.7,0.7c-0.2,0.2-0.4,0.5-0.4,0.9c-0.2,0.4-0.2,0.9-0.2,1.4c0,0.5,0,0.9,0,1.3c0.2,0.5,0.4,0.7,0.5,1.1
		c0,0.2,0.4,0.4,0.5,0.4c0.2,0.2,0.5,0.2,0.7,0.2c0.5,0,0.9,0,1.3-0.2s0.5-0.5,0.9-0.9V10.1z M63.3,3.6V17H62c-0.4,0-0.5,0-0.5-0.4
		l-0.2-0.9c-0.4,0.5-0.9,0.7-1.4,1.1c-0.4,0.2-0.9,0.4-1.6,0.4c-0.5,0-0.9,0-1.4-0.4c-0.4-0.2-0.7-0.4-1.1-0.9
		c-0.2-0.4-0.5-0.9-0.7-1.4c-0.2-0.5-0.2-1.3-0.2-2c0-0.7,0-1.4,0.2-2c0.2-0.5,0.5-1.1,0.9-1.4c0.4-0.5,0.7-0.9,1.3-1.1
		c0.5-0.2,1.1-0.4,1.6-0.4c0.5,0,0.9,0,1.3,0.2c0.5,0.2,0.7,0.4,1.1,0.7V3.6H63.3z M71.6,11.4c0-0.4,0-0.5-0.2-0.9
		c0-0.2-0.2-0.5-0.4-0.7c-0.2-0.2-0.4-0.4-0.5-0.4c-0.4-0.2-0.5-0.2-0.9-0.2c-0.7,0-1.1,0.2-1.4,0.5c-0.5,0.4-0.7,0.9-0.7,1.6H71.6z
		 M67.3,12.7c0.2,0.5,0.2,0.9,0.4,1.3c0,0.4,0.2,0.7,0.5,0.9c0.2,0.2,0.4,0.4,0.7,0.5c0.4,0,0.5,0.2,0.9,0.2s0.7-0.2,1.1-0.2
		c0.2-0.2,0.4-0.2,0.5-0.4c0.4,0,0.5-0.2,0.5-0.2c0.2-0.2,0.4-0.2,0.5-0.2s0.4,0,0.4,0.2l0.7,0.9c-0.4,0.2-0.5,0.5-0.9,0.7
		c-0.4,0.2-0.5,0.4-0.9,0.4c-0.4,0.2-0.7,0.2-1.1,0.4c-0.4,0-0.7,0-1.1,0c-0.5,0-1.3,0-1.8-0.4c-0.5-0.2-0.9-0.5-1.4-0.9
		c-0.4-0.4-0.7-0.9-0.9-1.6c-0.2-0.5-0.4-1.3-0.4-2.2c0-0.5,0.2-1.1,0.4-1.6c0.2-0.7,0.4-1.1,0.9-1.6c0.4-0.4,0.7-0.7,1.3-0.9
		c0.5-0.2,1.3-0.4,2-0.4c0.5,0,1.1,0.2,1.6,0.4c0.4,0.2,0.9,0.4,1.3,0.7s0.5,0.9,0.7,1.3c0.4,0.5,0.4,1.3,0.4,1.8c0,0.4,0,0.7,0,0.7
		c-0.2,0.2-0.4,0.2-0.5,0.2H67.3z M77.4,9.4c0.4-0.5,0.7-1.1,1.1-1.4c0.4-0.2,0.9-0.4,1.4-0.4c0.4,0,0.7,0,1.1,0.2l-0.2,1.8
		l-0.2,0.2h-0.2c-0.2,0-0.2,0-0.4,0c-0.2,0-0.4,0-0.5,0c-0.4,0-0.5,0-0.7,0c-0.2,0.2-0.4,0.2-0.5,0.4c-0.2,0.2-0.4,0.4-0.4,0.5
		c-0.2,0.2-0.2,0.4-0.4,0.7V17h-2.2V7.8h1.3c0.2,0,0.4,0,0.5,0c0,0.2,0,0.4,0.2,0.5V9.4z"/>
</g>
</svg>
